<?xml version="1.0" encoding="UTF-8" standalone="no"?>
<svg width="955.04" xmlns="http://www.w3.org/2000/svg" height="561.62">
 <g id="layer1">
  <path id="Large_Narwhal_Ubuntu_11.04" d="m280.84 465.72l6.8782 5.7442c8.4365 7.0455 17.546 10.539 28.464 12.296 23.204 3.7354 105.03-3.7036 148-11.089 28.259-4.8577 30.025-2.8267 45.237 5.2616 18.34 9.7514 68.762 17.578 81.82 7.2478 12.357-9.7753-2.7901-17.681-23.42-32.558 5.3019-3.3091 10.867-5.7325 21.971-9.3167 73.746-23.804 137.3-74.631 176.92-128.4 27.423-37.211 40.752-70.855 54.098-136.55 8.7812-43.225 12.904-57.16 19.89-66.145 2.7241-3.5038 22.159-12.198 41.561-21.919 36.015-18.045 68.096-37.202 71.486-42.687 6.0145-11.179-10.067-6.1623-24.482-7.2248-13.788-1.0163-33.075-4.2629-45.341-8.6318s-20.973-8.8619-27.32-8.1809c-3.2461 0.34831-12.893 6.632-18.799 12.725-12.725 13.129-15.087 16.536-15.087 5.9814 0-15.94 0.88123-20.568-22.802-18.121-9.7225 1.0047-22.892-2.1382-40.279-11.362-11.78-6.2493-18.823-14.406-24.734-12.522s0.24902 21.226 3.9432 28.156c2.0794 3.9 11.531 16.693 21.003 28.43 31.02 38.434 36.857 62.092 22.767 92.285-14.748 31.604-48.752 53.325-106.35 67.936-16.88 4.2819-37.611 9.7854-52.73 11.096-20.886 1.8112-23.732 2.3296-28.263 4.4194-17.013 7.8476-57.439 26.985-111.55 48.444-27.189 10.783-63.299 26.238-76.702 33.636-26.58 14.673-62.872 39.575-90.25 47.692-30.262 8.9727-38.029 19.948-43.266 52.493-3.7792 23.487-1.138 28.389-2.2605 30.749-13.008 0.94922-22.291 12.398-35.065 14.139-13.939 1.8995-27.591 14.933-42.101 16.761-15.802 1.9904-31.613 16.059-45.48 18.139-16.319 2.4473-30.008 14.906-45.204 18.273-15.416 3.4154-27.706 13.794-41.27 17.164-13.388 3.3253-23.545 11.853-33.68 14.81-10.101 2.9471-17.237 8.2132-22.434 11.213-5.1974 3.0001-6.2981 4.6271-5.959 5.1804 0.33904 0.55316 3.1986 0.57855 8.7502-1.2802s27.827-7.6576 36.855-12.886c10.432-6.0417 22.321-5.7772 34.5-12.12 13.238-6.894 28.068-7.5134 41.983-14.898 15.42-8.1838 31.534-8.1952 45.854-16.381 15.818-9.0416 32.302-8.5733 46.114-16.567 13.854-8.018 28.421-5.3586 38.906-14.848 2.5108-2.2726 18.325-3.5644 27.825-6.587z"/>
 </g>
</svg>
