<?xml version="1.0" encoding="UTF-8" standalone="no"?>
<!-- Created with Inkscape (http://www.inkscape.org/) -->

<svg
   xmlns:dc="http://purl.org/dc/elements/1.1/"
   xmlns:cc="http://creativecommons.org/ns#"
   xmlns:rdf="http://www.w3.org/1999/02/22-rdf-syntax-ns#"
   xmlns:svg="http://www.w3.org/2000/svg"
   xmlns="http://www.w3.org/2000/svg"
   xmlns:xlink="http://www.w3.org/1999/xlink"
   xmlns:sodipodi="http://sodipodi.sourceforge.net/DTD/sodipodi-0.dtd"
   xmlns:inkscape="http://www.inkscape.org/namespaces/inkscape"
   width="1868.507"
   height="659.76428"
   id="svg3203"
   version="1.1"
   inkscape:version="0.48.3.1 r9886"
   sodipodi:docname="Sperm_whale_size.svg">
  <defs
     id="defs3205">
    <linearGradient
       inkscape:collect="always"
       id="linearGradient4051">
      <stop
         style="stop-color:#4d4d4d;stop-opacity:1;"
         offset="0"
         id="stop4053" />
      <stop
         style="stop-color:#4d4d4d;stop-opacity:0;"
         offset="1"
         id="stop4055" />
    </linearGradient>
    <radialGradient
       inkscape:collect="always"
       xlink:href="#linearGradient4051"
       id="radialGradient4059"
       cx="450.00763"
       cy="466.39859"
       fx="450.00763"
       fy="466.39859"
       r="18.954725"
       gradientTransform="matrix(1.8205992,-0.63120089,0.11707804,0.33769312,-425.96832,594.82356)"
       gradientUnits="userSpaceOnUse" />
  </defs>
  <sodipodi:namedview
     id="base"
     pagecolor="#ffffff"
     bordercolor="#666666"
     borderopacity="1.0"
     inkscape:pageopacity="0.0"
     inkscape:pageshadow="2"
     inkscape:zoom="0.9899495"
     inkscape:cx="376.86919"
     inkscape:cy="111.84667"
     inkscape:document-units="px"
     inkscape:current-layer="layer9"
     showgrid="false"
     fit-margin-top="0"
     fit-margin-left="0"
     fit-margin-right="0"
     fit-margin-bottom="0"
     inkscape:window-width="1920"
     inkscape:window-height="1017"
     inkscape:window-x="-8"
     inkscape:window-y="-8"
     inkscape:window-maximized="1"
     inkscape:snap-global="false"
     showguides="true"
     inkscape:guide-bbox="true">
    <sodipodi:guide
       orientation="1,0"
       position="72.352081,559.68972"
       id="guide3899" />
    <sodipodi:guide
       orientation="1,0"
       position="1673.2143,1950.3608"
       id="guide4192" />
    <sodipodi:guide
       orientation="1,0"
       position="1172.8572,895.71791"
       id="guide4194" />
    <sodipodi:guide
       orientation="1,0"
       position="247.86609,1280.9387"
       id="guide4212" />
  </sodipodi:namedview>
  <metadata
     id="metadata3208">
    <rdf:RDF>
      <cc:Work
         rdf:about="">
        <dc:format>image/svg+xml</dc:format>
        <dc:type
           rdf:resource="http://purl.org/dc/dcmitype/StillImage" />
        <dc:title />
      </cc:Work>
    </rdf:RDF>
  </metadata>
  <g
     inkscape:label="Layer 1"
     inkscape:groupmode="layer"
     id="layer1"
     transform="translate(67.654748,-557.52339)" />
  <g
     inkscape:groupmode="layer"
     id="layer2"
     inkscape:label="outline"
     transform="translate(67.654748,-557.52339)">
    <path
       style="fill:#808080;fill-opacity:1;stroke:#000000;stroke-width:4.04050875px;stroke-linecap:butt;stroke-linejoin:miter;stroke-opacity:1"
       d="m 172.53015,677.08401 c 17.55529,0.0454 35.11231,-0.45507 52.66565,-0.19208 33.94428,0.50912 67.8387,3.31909 101.78662,3.42521 33.30107,0.10414 66.60419,-4.35206 99.86624,-2.73598 12.98095,0.63071 25.70563,4.21679 38.68705,4.84112 48.43307,2.33587 97.04344,-0.6475 145.4106,-4.08796 45.87052,-3.26287 92.07013,-6.18444 137.06512,-15.68213 50.51468,-10.66275 99.73972,-27.40179 147.86731,-46.08761 10.32299,-4.00792 20.79388,-8.06972 30.07755,-14.10637 6.29907,-4.09596 9.8587,-12.51959 17.0273,-14.77064 8.27317,-2.59796 17.66226,-0.0498 25.8686,2.75264 8.36881,2.85782 14.35432,10.68819 22.58807,13.9147 13.44314,5.26785 28.10294,7.2395 42.49584,8.38574 9.7798,0.77886 19.8004,0.90492 29.4133,-1.056 3.2738,-0.66783 6.0388,-3.20694 9.3578,-3.5926 9.0813,-1.05529 18.0909,4.71156 27.1769,3.69678 5.7811,-0.64556 10.5519,-5.60379 16.347,-6.10901 10.7846,-0.94012 21.1901,7.29334 31.9298,5.93326 7.2135,-0.91355 12.5728,-8.21195 19.7757,-9.20557 10.9595,-1.51176 21.7478,6.42037 32.7579,5.33718 9.6486,-0.94923 17.5801,-9.41811 27.2451,-10.18173 6.2383,-0.49287 12.1988,2.88406 18.3993,3.72875 5.2644,0.71734 10.8472,2.7739 15.8989,1.12833 10.5416,-3.43389 16.0228,-15.56847 25.4247,-21.44379 11.2011,-6.99947 23.1693,-14.11845 36.2388,-16.02671 13.5734,-1.98182 27.1444,4.16587 40.8234,5.18916 10.413,0.77878 21.0079,2.37201 31.3178,0.71633 10.8404,-1.74092 20.1257,-9.81258 31.0378,-11.02588 11.4835,-1.27681 23.0571,2.01939 34.4142,4.14495 10.6801,1.99883 20.8851,6.16228 31.5818,8.06965 8.0641,1.43796 16.2533,2.45901 24.4444,2.52059 13.6492,0.10271 27.1824,-2.53612 40.7915,-3.58845 13.7853,-1.06588 27.6,-1.72376 41.3876,-2.76027 13.8437,-1.04062 27.6265,-3.0691 41.5036,-3.47239 17.7134,-0.51475 35.4389,0.63864 53.1456,1.34858 13.5346,0.54264 27.1682,0.29478 40.5754,2.2246 10.2613,1.47698 20.3139,4.24832 30.2736,7.12549 8.2049,2.37028 17.005,3.77704 24.2284,8.33365 3.7836,2.38686 9.4056,9.57379 9.4056,9.57379 l -4.1407,2.98057 c 0,0 -10.1785,-7.38337 -16.163,-8.48165 -9.3581,-1.71752 -18.9696,1.7594 -28.3372,3.42449 -10.51,1.86806 -20.6655,5.44805 -31.1698,7.34914 -13.3289,2.41237 -26.7871,4.36976 -40.3113,5.12868 -13.1085,0.73568 -26.256,-0.34522 -39.3832,-0.56829 -8.502,-0.1445 -17.0055,-0.23784 -25.5047,-0.50021 -6.0528,-0.18668 -12.8315,-3.65779 -18.1513,-0.76427 -4.0804,2.21937 -4.0903,8.44569 -7.0733,12.00618 -6.4669,7.71869 -13.9569,15.1061 -22.9404,19.65542 -7.8893,3.99531 -17.5008,3.07253 -25.8368,6.02498 -7.4847,2.65101 -14.656,6.25814 -21.4319,10.39777 -6.8223,4.16811 -11.8349,11.2275 -19.1636,14.42252 -3.0426,1.32653 -6.5199,2.24993 -9.8018,1.75418 -2.7474,-0.41489 -5.1591,-2.19109 -7.4053,-3.82662 -5.0176,-3.65344 -9.4033,-8.21952 -13.2143,-13.11851 -2.3068,-2.96522 -5.7291,-9.70577 -5.7291,-9.70577 0,0 -13.8156,6.92643 -20.1236,11.34192 -9.9272,6.94891 -18.6225,15.5199 -27.6112,23.64623 -13.7554,12.43547 -26.9527,25.47633 -40.2496,38.40077 -11.7287,11.40016 -22.4381,23.89329 -34.8667,34.52613 -11.7602,10.06108 -24.7217,18.63614 -37.3829,27.53681 -8.3523,5.87143 -16.1989,12.7166 -25.4408,17.05497 -13.0481,6.1252 -27.5469,8.52493 -41.4716,12.24999 -15.6202,4.17863 -31.0964,9.55179 -47.1687,11.32182 -9.9059,1.09092 -20.4409,-3.64146 -29.8935,-0.48422 -4.3581,1.45568 -6.7346,6.48358 -10.882,8.46147 -7.982,3.80672 -17.2729,3.81902 -25.8368,6.02494 -11.5656,2.97923 -23.3716,5.35265 -34.4823,9.73362 -7.5179,2.96428 -14.5851,7.00841 -21.5479,11.10992 -12.4631,7.34124 -22.7102,18.59869 -36.0908,24.09217 -23.2282,9.53647 -49.29515,9.59084 -73.96569,14.26623 -25.11466,4.75953 -50.06511,10.56192 -75.3898,14.03411 -11.55832,1.58474 -23.20838,2.55523 -34.86245,3.0924 -8.76835,0.40407 -17.60225,-0.81248 -26.33277,0.0954 -17.41514,1.81187 -34.28074,7.15025 -51.44148,10.62566 -20.88494,4.22962 -41.78174,8.40248 -62.70355,12.44589 -14.56602,2.81508 -29.11488,5.73529 -43.74003,8.22525 -8.47263,1.4425 -16.90499,3.45675 -25.48865,3.88857 -6.52542,0.32865 -13.05469,-0.58902 -19.5756,-0.99627 -35.66256,-2.22729 -71.23907,-5.71834 -106.90348,-7.91407 -14.9778,-0.92205 -29.96161,-1.88236 -44.96428,-2.20859 -20.23921,-0.44018 -40.48703,0.37308 -60.73103,0.33982 -12.65346,-0.018 -25.32253,0.32001 -37.95895,-0.33622 -14.44292,-0.75027 -28.89624,-1.92289 -43.19183,-4.11296 -9.99619,-1.53126 -19.90155,-3.70885 -29.67742,-6.29734 -6.34584,-1.68019 -12.39305,-4.39643 -18.7634,-5.9812 -13.30546,-3.30997 -26.85114,-5.78541 -40.47538,-7.32557 -16.60039,-1.87655 -33.35908,-2.25071 -50.06514,-2.30869 -14.48033,-0.0501 -28.9287,1.51557 -43.40795,1.70008 -11.42753,0.14522 -22.92969,0.84688 -34.28222,-0.46826 -8.614044,-0.99777 -16.920806,-3.80641 -25.404669,-5.60116 -6.122292,-1.29507 -12.303708,-2.31331 -18.399305,-3.72882 -4.941944,-1.14782 -10.408588,-1.19071 -14.722683,-3.86078 -6.101047,-3.77599 -9.980297,-10.37759 -14.174508,-16.19904 -5.292257,-7.3455 -10.38241,-15.02317 -13.726372,-23.43638 -4.223101,-10.62501 -6.095312,-22.10358 -7.713252,-33.42212 -1.568851,-10.97521 -2.1870861,-22.12297 -1.900133,-33.20608 0.355174,-13.72327 0.848994,-27.69976 4.477045,-40.93946 3.160891,-11.53493 7.616765,-23.13134 14.826853,-32.6739 7.815916,-10.34429 18.193682,-19.12629 29.681574,-25.13642 9.34752,-4.89031 20.163267,-6.47 30.573643,-8.17733 11.687417,-1.91677 23.619407,-1.93907 35.458497,-2.2642 15.81091,-0.4342 31.63189,0.379 47.44866,0.4203 z"
       id="path3222-9"
       inkscape:connector-curvature="0"
       sodipodi:nodetypes="ssssssssssssssssssssssssssssssssssssssccssssssssssssssscsssssssssssssssssssssssssssssssssssssssssssssss" />
    <path
       style="fill:#808080;stroke:#000000;stroke-width:4.04050875px;stroke-linecap:butt;stroke-linejoin:miter;stroke-opacity:1"
       d="m 468.93508,899.36229 c 0,0 15.47186,13.25988 26.0487,19.59571 11.18898,6.70253 22.00921,14.00648 33.16997,20.75597 11.46577,6.93404 22.72463,14.28504 34.71023,20.27589 6.41788,3.20799 12.86442,6.66809 19.83956,8.34969 5.39788,1.3013 11.45482,3.30438 16.61104,1.2443 4.52231,-1.80683 7.69346,-6.44204 9.80588,-10.82996 1.9821,-4.11732 1.08789,-9.09931 2.20444,-13.5304 1.72957,-6.86305 3.99902,-13.62738 6.92535,-20.07168 1.69932,-3.74201 6.20534,-6.58887 6.12923,-10.69792 -0.0476,-2.55616 -2.17558,-4.77787 -4.05674,-6.50923 -6.32391,-5.82015 -15.16185,-8.114 -22.93613,-11.77828 -8.07289,-3.805 -17.25566,-5.50451 -24.59243,-10.58603 -4.94289,-3.42351 -7.42669,-9.77895 -12.50222,-13.00247 -2.46986,-1.56859 -8.3135,-2.81656 -8.3135,-2.81656"
       id="path3224-8"
       inkscape:connector-curvature="0"
       sodipodi:nodetypes="csssssssssssssc" />
    <path
       style="fill:none;stroke:#000000;stroke-width:4.04050875px;stroke-linecap:butt;stroke-linejoin:miter;stroke-opacity:1"
       d="m 1524.3999,574.40618 c 0,0 -25.8911,1.17399 -38.297,4.54317"
       id="path4152-2"
       inkscape:connector-curvature="0"
       sodipodi:nodetypes="cc" />
    <path
       style="fill:none;stroke:#000000;stroke-width:4.04050875px;stroke-linecap:butt;stroke-linejoin:miter;stroke-opacity:1"
       d="m 83.184606,897.9199 c 0,0 15.191627,-5.63165 23.104274,-7.20121 9.49811,-1.88404 19.26563,-2.04789 28.93332,-2.5963 11.72661,-0.66523 23.4998,-1.50492 35.22645,-0.84 9.84789,0.55842 19.53994,2.71313 29.31328,4.04493 8.58229,1.16945 17.17173,2.286 25.75276,3.46478 10.72471,1.47309 21.43219,3.0717 32.1618,4.509 6.91703,0.92678 14.83691,2.54463 20.98284,4.69798"
       id="path3241-3"
       inkscape:connector-curvature="0"
       sodipodi:nodetypes="cssssssc" />
    <path
       style="fill:none;stroke:#000000;stroke-width:2.02025437;stroke-linecap:butt;stroke-linejoin:miter;stroke-miterlimit:4;stroke-opacity:1;stroke-dasharray:none"
       d="m 1489.6575,587.55557 c 5.7021,-0.3712 16.5696,-3.10917 31.5786,-1.61092 42.8597,4.2783 103.3601,15.50926 61.5986,18.06747 0,0 -19.6707,2.69682 -31.384,4.59103 -11.5633,1.86993 -23.2783,3.10752 -34.6143,6.05688 -9.2696,2.41172 -18.4294,5.46263 -27.1291,9.46961 -9.6217,4.43167 -27.4611,15.99479 -27.4611,15.99479"
       id="path3011"
       inkscape:connector-curvature="0"
       sodipodi:nodetypes="cscsssc" />
  </g>
  <g
     inkscape:groupmode="layer"
     id="layer7"
     inkscape:label="diver"
     transform="translate(67.654748,-557.52339)">
    <g
       style="display:inline"
       id="g3878-1-2-7-4-3-0-7-5"
       transform="matrix(-0.66849026,0.24845011,0.24845011,0.66849026,-117.07945,1383.5181)">
      <g
         id="g4125"
         transform="translate(-91.283759,-143.05002)">
        <path
           style="fill:#000000;stroke:#ffffff;stroke-width:0.60000002;stroke-linecap:butt;stroke-linejoin:miter;stroke-miterlimit:4;stroke-opacity:1;stroke-dasharray:none"
           d="m -458.11253,-183.60127 c 0,0 -4.64211,-0.16992 -6.96429,-0.17857 -1.63716,-0.006 -3.27598,0.17875 -4.91071,0.0893 -1.16847,-0.0639 -2.43173,0.0694 -3.48214,-0.44643 -0.86896,-0.42669 -1.30119,-1.44442 -2.05358,-2.05357 -3.14381,-2.54528 -6.24422,-4.61024 -9.8629,-6.41775 -3.48719,-1.74183 -8.3959,-2.6753 -12.05542,-4.01785 -5.74593,-2.10798 -16.47453,-6.52869 -16.47453,-6.52869 0,0 1.31457,-2.23205 1.07143,-3.39286 -0.25944,-1.23861 -0.57478,-2.05345 -1.74239,-2.54147 -2.2833,-0.95434 -5.6946,0.061 -8.16833,0.13076 -7.88382,0.22236 -15.78904,0.40162 -23.66071,-0.0893 -5.17655,-0.32284 -9.51563,-0.924 -14.62568,-1.81187 -3.42532,-0.59514 -7.77665,-0.96612 -11.24803,-1.70125 -2.83659,-0.60071 -5.61267,-1.65454 -8.43367,-1.99009 -2.18717,-0.26016 -6.22834,-0.65751 -6.22834,-0.65751 -2.11313,1.03895 -2.748,2.61544 -1.16071,5 0,0 4.4445,1.6133 6.74839,1.86022 6.17638,0.66194 10.28783,1.51417 15.46797,2.2097 6.57198,0.88241 11.10959,1.68069 17.61453,2.96732 3.66527,0.72496 8.58055,1.31857 12.0587,2.68322 3.1208,1.22444 7.01671,3.16137 10.06996,4.54569 3.75983,1.70467 7.52052,2.7226 11.26951,4.45098 5.16791,2.38254 9.99031,5.45605 14.89975,8.33376 3.74906,2.19754 7.50228,4.39843 11.11168,6.81853 1.91351,1.28301 5.58094,4.07701 5.58094,4.07701 l 5.35714,5"
           id="path2997-7-45-7-5-8-2-8-4"
           inkscape:connector-curvature="0"
           sodipodi:nodetypes="csssssscsssssssccsssssssscc" />
        <path
           style="fill:#000000;stroke:#ffffff;stroke-width:0.60000002;stroke-linecap:butt;stroke-linejoin:miter;stroke-miterlimit:4;stroke-opacity:1;stroke-dasharray:none;display:inline"
           d="m -592.0411,-94.047707 c 0,0 12.24832,0.11058 18.21428,-1.07142 5.18873,-1.02801 10.2888,-2.77352 15,-5.178583 4.98597,-2.54533 9.40617,-6.1116 13.75,-9.64285 5.13013,-4.17047 9.4895,-9.21683 14.46429,-13.57143 5.02953,-4.40251 10.06401,-8.83946 15.53571,-12.67857 6.64344,-4.66124 10.2835,-7.03039 17.32143,-11.07143 5.24443,-3.01125 13.85822,-7.60949 19.55358,-9.64286 3.70536,-1.3229 7.79343,-1.41033 11.51785,-2.67857 2.46963,-0.84096 4.59503,-2.47924 6.96429,-3.57143 5.26018,-2.42485 10.70224,-4.43427 16.07142,-6.60714 7.00831,-2.83622 14.00912,-5.69389 21.07143,-8.39286 4.2041,-1.60666 8.31809,-3.52841 12.67857,-4.64286 5.42375,-1.3862 11.09514,-1.52208 16.60715,-2.5 2.63217,-0.46699 5.29491,-0.84467 7.85714,-1.60714 5.58316,-1.66145 11.0895,-3.72648 16.25,-6.42857 5.51375,-2.88706 10.87453,-6.23283 15.53571,-10.35714 3.35082,-2.96487 6.49038,-6.31689 8.75,-10.17857 2.11117,-3.60798 2.08557,-8.23131 4.28572,-11.78572 0.86424,-1.3962 2.19886,-2.44419 3.39286,-3.57143 0.73707,-0.69586 2.32142,-1.96428 2.32142,-1.96428 0,0 2.73925,0.70349 4.46429,0.89286 1.49685,0.16431 4.28571,0.35714 4.28571,0.35714 0,0 1.79948,3.89388 3.57143,4.82143 1.68836,0.8838 3.93317,0.85626 5.71429,0.17857 1.45606,-0.554 2.80389,-1.77202 3.39286,-3.21429 0.60801,-1.48888 0.54481,-3.38506 -0.17858,-4.82143 -0.51431,-1.02122 -2.67857,-2.14285 -2.67857,-2.14285 l -3.03571,-0.89286 1.60715,-3.03572 1.38392,0 c 0,0 0.54174,0.16406 0.71428,0 0.35455,-0.33712 0.0739,-1.46586 0.0739,-1.46586 l -1.81498,-3.53414 c 0,0 -0.12704,-2.26151 -0.17857,-3.39285 -0.0705,-1.54716 0.37004,-3.19452 -0.17857,-4.64286 -0.29967,-0.79114 -1.14728,-1.2542 -1.60714,-1.96429 -1.08524,-1.67578 -1.49154,-3.75186 -2.67857,-5.35714 -1.02632,-1.38795 -2.36551,-2.54045 -3.75,-3.57143 -1.5396,-1.14649 -3.22761,-2.11996 -5,-2.85714 -1.65336,-0.68767 -3.38814,-1.39964 -5.17857,-1.42857 -1.77554,-0.0287 -3.50576,0.65415 -5.17858,1.25 -1.55495,0.55387 -3.1621,1.12849 -4.46428,2.14286 -1.46701,1.14277 -3.57143,4.28571 -3.57143,4.28571 l -2.5,-3.57143 -4.64286,-1.78571 -3.03571,0.53571 -2.32143,-3.21428 -2.67857,0 -1.60714,1.25 -1.42858,2.14285 c 0,0 -2.25003,-1.71698 -3.57142,-2.14285 -2.04662,-0.65961 -4.29019,-0.76156 -6.42858,-0.53572 -2.65915,0.28084 -5.11909,1.54747 -7.67857,2.32143 -21.84562,6.60588 -65.53571,19.82143 -65.53571,19.82143 0.40069,8.09633 1.92063,16.31775 7.67857,24.82143 l 33.57143,-10.53572 0.17857,13.21429 c 0,0 -5.84656,0.20578 -8.75,0.53571 -2.15852,0.24528 -4.38208,0.34256 -6.42857,1.07143 -2.2604,0.80505 -4.40606,2.03605 -6.25,3.57143 -2.69416,2.24332 -5.28669,6.00529 -7.76786,8.48214 -4.5146,4.50674 -9.11861,7.74604 -14.19642,11.60714 -3.10161,2.35842 -6.58376,4.13298 -9.73215,6.42858 -2.43398,1.7747 -4.05234,4.25153 -6.51786,5.98214 -5.11904,3.59319 -10.78956,6.25177 -17.5,8.57143 -3.51011,1.21338 -6.27002,2.21243 -9.46428,4.10714 -4.32621,2.56614 -8.75117,6.21314 -12.58929,9.46429 -2.64057,2.23674 -5.43948,4.71784 -8.21429,6.78571 -2.03895,1.51948 -7.94643,6.07143 -7.94643,6.07143 0,0 -2.58378,-2.4941 -4.82142,-2.14286 -1.32145,0.20743 -2.72177,0.57301 -3.75,1.42857 -2.46403,2.05025 -2.92132,5.23624 -4.10714,8.21429 -0.63056,1.58358 -1.29404,3.43281 -1.96429,5 -1.41525,3.30917 -4.01039,5.97804 -6.07143,8.92857 -1.92973,2.76256 -3.77584,5.5925 -5.89286,8.21429 -1.61492,1.99997 -3.31378,3.94499 -5.17857,5.71428 -1.50391,1.42689 -2.97698,2.98212 -4.82143,3.92857 -2.63359,1.35138 -5.68064,1.68472 -8.57143,2.32143 -2.41783,0.53254 -4.88603,0.80457 -7.32142,1.25 -2.44593,0.44736 -4.94658,0.69185 -7.32143,1.42857 -1.85878,0.576633 -5.35715,2.321433 -5.35715,2.321433 z"
           id="path3000-4-5-1-2-6-0-7-3"
           inkscape:connector-curvature="0"
           sodipodi:nodetypes="cssssssssssssssssssscscssssccccsccsssssssssccccccccsssccccssssssssssscssssssssssscc" />
        <path
           style="fill:none;stroke:#ffffff;stroke-width:0.60000002;stroke-linecap:butt;stroke-linejoin:miter;stroke-miterlimit:4;stroke-opacity:1;stroke-dasharray:none"
           d="m -450.61253,-244.80664 c 5.23924,8.28869 7.72055,16.57739 7.72321,24.86608"
           id="path3776-0-1-26-9-9-8-8-1"
           inkscape:connector-curvature="0"
           sodipodi:nodetypes="cc" />
      </g>
    </g>
  </g>
  <g
     inkscape:groupmode="layer"
     id="layer3"
     inkscape:label="flipper"
     transform="translate(67.654748,-557.52339)" />
  <g
     inkscape:groupmode="layer"
     id="layer13"
     inkscape:label="eye7"
     transform="translate(91.575176,263.82185)">
    <path
       style="fill:#666666;fill-opacity:1;stroke:none"
       d="m 298.29283,-9.0453995 c 0,0 3.13289,-1.3954735 4.71138,-2.0652655 2.86857,-1.217226 5.62417,-2.798059 8.6483,-3.54968 4.27954,-1.063647 8.76264,-1.525921 13.16609,-1.290802 3.59806,0.192218 7.13097,1.166643 10.58449,2.194333 2.37018,0.705328 4.15656,1.064811 6.0022,2.710679 0.58177,0.518833 0.99821,1.2920278 1.09716,2.0652694 0.0591,0.4606374 -0.0858,0.9560147 -0.32288,1.3553429 -0.2955,0.4977014 -0.38725,1.1617024 -0.38725,1.1617024 z"
       id="path4230-7"
       inkscape:connector-curvature="0"
       sodipodi:nodetypes="cssssssscc" />
    <path
       style="fill:#000000;fill-opacity:1;stroke:#000000;stroke-width:0.36142167px;stroke-linecap:butt;stroke-linejoin:miter;stroke-opacity:1"
       d="m 298.13969,-8.8411847 c 0,0 6.74406,1.7813893 10.2493,2.1794463 2.75091,0.3123984 8.37034,0.1935144 8.37034,0.1935144 0,0 1.41888,2.3486009 2.46438,3.1945242 1.25887,1.0185947 2.78891,1.8037895 4.3811,2.0992944 1.50043,0.27848851 3.12906,0.1554606 4.56365,-0.3650585 0.84113,-0.3051914 1.51308,-0.9670628 2.19052,-1.5516436 0.73312,-0.6326172 2.00801,-2.0992654 2.00801,-2.0992654 0,0 3.59116,-0.021264 5.38508,-0.091242 1.00513,-0.038813 2.11905,0.2803984 3.01199,-0.1824516 0.34595,-0.1792804 0.75175,-0.5237262 0.7302,-0.9127345 -0.0252,-0.4296029 -0.51207,-0.755854 -0.91273,-0.9127315 -2.18304,-0.8548419 -4.68356,0.2636061 -7.02799,0.273804 -1.00445,0.00536 -2.05014,0.1982717 -3.012,-0.091242 -0.71955,-0.216542 -1.23994,-0.8600669 -1.91673,-1.1865593 -1.13548,-0.547752 -2.3034,-1.1720634 -3.55965,-1.2777968 -0.86229,-0.07269 -1.70227,0.3127592 -2.55564,0.4563561 -0.5771,0.097012 -1.14992,0.3072816 -1.73418,0.2738039 -5.62812,1.7151978 -14.08236,-0.4432609 -20.26257,-0.6389129 -0.78442,0.2361106 -2.37308,0.6389129 -2.37308,0.6389129 z"
       id="path3825-9-4"
       inkscape:connector-curvature="0"
       sodipodi:nodetypes="cscsssscsssssssssccc" />
    <path
       style="fill:#ffffff;stroke:#000000;stroke-width:0.36142167px;stroke-linecap:butt;stroke-linejoin:miter;stroke-opacity:1"
       d="m 318.94548,-6.1411367 c 0,0 0.9898,-0.9985798 1.61351,-1.2907772 1.84916,-0.8663377 6.00217,-1.2262432 6.00217,-1.2262432 0,0 1.06647,0.5024615 1.48443,0.9035348 0.22393,0.2149568 0.41657,0.4806774 0.5163,0.7744848 0.31192,0.9187381 0.3116,1.9834379 -0.11287,2.8558802 -0.25063,0.5150776 -0.5804,0.8064022 -1.11332,1.0164866 -1.05297,0.4151309 -2.22425,0.5075064 -3.35604,0.51631 -0.6298,0.0054 -1.25541,-0.1282531 -1.87166,-0.2580199 -0.45977,-0.096757 -0.94737,-0.1541272 -1.35535,-0.3872424 -0.5153,-0.2944165 -0.97819,-0.7217962 -1.29076,-1.226243 -0.30826,-0.4974631 -0.51635,-1.6780446 -0.51635,-1.6780446 z"
       id="path3829-2"
       inkscape:connector-curvature="0"
       sodipodi:nodetypes="cscssssssssc" />
    <path
       style="fill:#666666;fill-opacity:1;stroke:#000000;stroke-width:0.36142167px;stroke-linecap:butt;stroke-linejoin:miter;stroke-opacity:1"
       d="M 305.53278,-3.4561011 C 319.57572,8.8069495 332.68154,6.3196415 340.94662,2.93299"
       id="path3822-7"
       inkscape:connector-curvature="0"
       sodipodi:nodetypes="cc" />
    <path
       style="fill:#000000;stroke:#000000;stroke-width:0.36142167px;stroke-linecap:butt;stroke-linejoin:miter;stroke-opacity:1"
       d="m 320.62352,-7.302839 c 0,0 0.059,1.406046 0.38725,2.000725 0.22789,0.4130511 0.61834,0.7422824 1.03262,0.9681003 0.54517,0.2971192 1.18701,0.4197831 1.80711,0.4517762 0.91151,0.047063 1.98023,0.1599651 2.71065,-0.3872425 0.41605,-0.3117139 0.55656,-0.9076321 0.64541,-1.4198774 0.0886,-0.5104754 -0.0133,-1.043737 -0.12905,-1.5489477 -0.1071,-0.4713983 -0.51631,-1.3553102 -0.51631,-1.3553102 0,0 -2.08576,0.036211 -3.0979,0.2580196 -0.98383,0.2157495 -2.83973,1.0326345 -2.83973,1.0326345 z"
       id="path3827-7"
       inkscape:connector-curvature="0"
       sodipodi:nodetypes="csssssscsc" />
    <path
       style="fill:none;stroke:#666666;stroke-width:0.54213262;stroke-linecap:round;stroke-linejoin:miter;stroke-miterlimit:4;stroke-opacity:1;stroke-dasharray:none"
       d="m 307.63208,-16.234305 c 7.36278,-2.776755 15.54868,-2.929859 23.63963,-2.190531"
       id="path4022-9"
       inkscape:connector-curvature="0"
       sodipodi:nodetypes="cc" />
    <path
       style="fill:#808080;fill-opacity:1;stroke:none"
       d="m 316.93069,-8.8135449 c 0,0 2.24652,-1.0158602 3.6283,-2.1538251 1.09954,-0.905531 2.31747,-1.509698 3.73708,-1.62671 1.91435,-0.157876 3.29134,0.157334 4.78213,1.368567 1.01566,0.82517 2.71067,3.4851396 2.71067,3.4851396 0,0 -2.13738,-0.8971348 -3.22698,-1.290802 -1.44606,-0.5224513 -2.46396,-0.9820836 -4.00147,-0.9680979 -1.45583,0.013338 -3.06477,0.8756679 -4.51774,0.9680979 -1.27164,0.080903 -3.11199,0.2176225 -3.11199,0.2176225 z"
       id="path4265-8-3"
       inkscape:connector-curvature="0"
       sodipodi:nodetypes="cssscsssc" />
    <path
       style="fill:#808080;fill-opacity:1;stroke:none"
       d="m 316.6866,-12.466008 15.23135,0.129046 c 0,0 -1.00174,-1.684037 -1.67037,-2.065266 -1.91722,-1.093132 -3.72531,-1.778732 -5.80855,-1.685677 -3.13338,0.139858 -7.75243,3.621871 -7.75243,3.621871 z"
       id="path4296-1"
       inkscape:connector-curvature="0"
       sodipodi:nodetypes="ccsscc" />
  </g>
  <g
     inkscape:groupmode="layer"
     id="layer4"
     inkscape:label="female"
     transform="translate(91.575176,263.82185)" />
  <g
     inkscape:groupmode="layer"
     id="layer8"
     inkscape:label="female eye"
     style="display:inline"
     transform="translate(91.575176,263.82185)">
    <g
       id="g4199"
       transform="matrix(0.88232191,0.04911812,-0.04911812,0.88232191,63.126273,-22.381686)">
      <path
         sodipodi:nodetypes="ccccccccccccsssssssssssssssssssssssssssssssssssssssssssssssssssssssssssssssssssssssssssssssssssssssssssssssssssscc"
         inkscape:connector-curvature="0"
         id="path2998-1"
         d="m 1537.3845,141.55847 3.5309,-13.61935 0.5044,-9.58398 3.531,-9.83624 7.8185,-6.55746 13.115,-7.566346 7.314,-3.026501 5.8009,1.261003 2.0176,2.522127 6.0531,-1.261047 6.3053,0.252542 3.5309,0.252543 c 0,0 4.9241,-6.984829 7.5663,-10.340633 5.314,-6.749144 10.5999,-13.570534 16.6459,-19.67243 4.5312,-4.573085 9.7375,-8.423974 14.6282,-12.610509 1.6764,-1.435027 3.1761,-3.112849 5.0442,-4.287584 1.4019,-0.881556 3.0422,-2.724233 4.5398,-2.017629 1.4204,0.670037 1.2141,2.969852 1.2611,4.539711 0.033,1.203184 -0.325,2.407254 -0.7567,3.530963 -2.5378,6.609907 -6.9665,12.33014 -10.5928,18.411426 -3.4413,5.771141 -6.6725,11.693191 -10.5928,17.150225 -2.9958,4.170009 -6.7369,7.760319 -9.8362,11.853919 -4.5607,6.02387 -8.4729,12.51419 -12.8627,18.66359 -4.1912,5.87094 -8.4903,11.66542 -12.8628,17.40252 -3.6293,4.76188 -8.0476,8.97142 -11.0973,14.12372 -2.8395,4.7974 -4.0913,10.3854 -6.5574,15.38497 -1.6655,3.37596 -3.6497,6.58578 -5.5486,9.83614 -2.1311,3.64764 -3.9521,7.51977 -6.5576,10.84509 -4.0331,5.14721 -9.0871,9.41416 -13.8716,13.87152 -5.5377,5.15925 -11.1204,10.30602 -17.1502,14.88044 -4.0124,3.04402 -8.4102,5.54404 -12.6106,8.32294 -7.9925,5.28764 -16.1858,10.28551 -23.9599,15.88926 -9.5226,6.86409 -19.9365,19.06418 -30.9534,23.11682 -27.7256,10.19921 -68.9082,21.87709 -101.0063,30.61943 -44.8209,12.20748 -83.216,25.75312 -127.0605,43.36479 -9.351,3.75616 -17.8554,9.44024 -27.2388,13.115 -8.2705,3.23883 -16.8177,5.82564 -25.4732,7.81851 -11.6915,2.6918 -23.6649,3.99949 -35.5617,5.54862 -12.8246,1.66999 -25.6964,3.00633 -38.5883,4.03535 -12.1699,0.97153 -24.4109,0.92364 -36.5704,2.01774 -14.8515,1.3363 -29.5781,3.82003 -44.3891,5.54861 -20.9143,2.44085 -41.86654,4.54443 -62.8004,6.80971 -17.90648,1.93756 -35.81811,3.82947 -53.72097,5.8008 -16.48164,1.81486 -33.0535,2.97162 -49.43322,5.54862 -16.6944,2.62654 -32.9467,7.76145 -49.68548,10.08846 -7.68294,1.06797 -15.46066,1.29843 -23.20327,1.76546 -13.18817,0.79554 -26.38848,2.07007 -39.59718,1.76548 -4.64159,-0.10666 -9.22876,-1.28566 -13.87156,-1.26105 -15.8017,0.084 -45.39785,4.79197 -47.1633,4.79197 -1.76546,0 -25.0248,2.52491 -37.57933,2.52217 -12.47083,-0.004 -24.88494,-3.36453 -37.32723,-2.52217 -12.50204,0.84641 -24.6791,4.47614 -36.82264,7.56635 -12.86081,3.27268 -25.46033,7.5085 -38.0838,11.60167 -7.86536,2.55026 -15.5145,5.76751 -23.45571,8.0707 -6.63904,1.92556 -13.4237,3.3153 -20.17679,4.79203 -4.18778,0.91575 -8.32381,2.51065 -12.61044,2.52207 -3.08326,0.007 -5.99726,-1.8372 -9.0797,-1.76541 -3.20039,0.0746 -6.14949,1.92065 -9.33171,2.26988 -4.17934,0.4586 -8.42438,0.13875 -12.61054,-0.25261 -4.05275,-0.37777 -8.10035,-1.00681 -12.04312,-2.01771 -5.43431,-1.3933 -10.90559,-2.97263 -15.88919,-5.54869 -5.15488,-2.66434 -9.84447,-6.23933 -14.18688,-10.08839 -4.97686,-4.41139 -9.21448,-9.61063 -13.43018,-14.75428 -3.3255,-4.05754 -6.55007,-8.22561 -9.33178,-12.6736 -4.10252,-6.55986 -8.56937,-13.14118 -10.78199,-20.55514 -2.23454,-7.48693 -2.86529,-15.53899 -2.26992,-23.3295 0.59654,-7.80708 3.54239,-15.26493 5.80083,-22.76197 2.20856,-7.33191 5.20447,-14.40612 7.56622,-21.69014 1.62433,-5.00951 1.45532,-10.86418 4.53988,-15.13261 3.00528,-4.15876 8.63012,-5.58937 12.61055,-8.8273 3.04492,-2.47717 5.4449,-5.7022 8.57515,-8.0708 1.56358,-1.18318 3.23398,-2.27288 5.04422,-3.02651 10.40952,-4.33387 21.88809,-5.43377 32.78741,-8.32294 16.77767,-4.4475 33.52212,-9.02836 50.18988,-13.87163 13.84147,-4.02194 27.65241,-8.16092 41.3625,-12.61048 15.22345,-4.94075 30.33719,-10.22046 45.39779,-15.63708 19.60148,-7.04952 38.96361,-14.74944 58.5129,-21.94224 22.31219,-8.20947 44.34511,-17.28493 67.08794,-24.21225 21.2217,-6.46405 42.73623,-12.19108 64.5659,-16.14145 22.7295,-4.11319 45.9167,-5.08873 68.85354,-7.81858 20.27414,-2.41292 40.58585,-4.57452 60.78279,-7.56633 18.64857,-2.76243 37.16784,-6.3386 55.73845,-9.58399 17.99965,-3.14554 35.96716,-6.47489 53.97318,-9.58395 12.5163,-2.16127 25.042,-4.26921 37.5793,-6.30526 10.164,-1.65067 20.5205,-2.32398 30.5175,-4.79208 7.8464,-1.9371 15.3328,-5.11981 22.9511,-7.81848 8.9504,-3.17054 17.8787,-6.40944 26.7343,-9.8362 2.7082,-1.047905 5.3148,-2.363861 8.0708,-3.278753 1.8964,-0.629591 3.8026,-1.541857 5.8008,-1.513248 2.1015,0.02846 4.1961,0.780867 6.0531,1.765458 2.7959,1.482583 4.9736,3.923013 7.314,6.053083 2.5499,2.3207 4.8314,4.92158 7.3142,7.31408 1.1565,1.11454 2.1389,2.47729 3.5309,3.27876 2.7425,1.57928 5.9787,2.1424 9.0795,2.77433 7.0413,1.43475 14.303,1.41664 21.438,2.26988 7.5792,0.90637 15.0977,2.32814 22.6989,3.0265 11.5679,1.06283 23.1949,1.37903 34.8051,1.76542 5.2942,0.17659 10.6071,-0.14588 15.8893,0.25254 9.9826,0.75336 19.8682,2.49967 29.7608,4.03539 6.747,1.04739 13.3709,2.9851 20.1767,3.53097 6.3696,0.51092 12.7852,-0.54869 19.1681,-0.25226 7.9386,0.36899 16.0101,0.54664 23.7079,2.52215 3.7959,0.97418 7.0146,3.71112 10.845,4.53977 8.3027,1.79627 16.9954,1.29529 25.4732,0.75666 8.0694,-0.51277 15.9427,-2.73447 23.96,-3.78316 6.4532,-0.8441 12.9169,-2.27079 19.4202,-2.01763 5.1244,0.19928 10.346,0.93374 15.1327,2.77428 4.3336,1.66629 7.4654,5.79796 11.8538,7.31403 4.958,1.71288 10.3972,1.52596 15.6371,1.76546 7.9801,0.36486 16.0454,0.57892 23.96,-0.5044 3.3536,-0.45896 6.4989,-1.95688 9.8362,-2.52211 4.908,-0.83125 10.0321,-0.13225 14.8805,-1.26105 6.0668,-1.41266 17.4024,-6.80973 17.4024,-6.80973 l 7.3142,-3.78313"
         style="fill:#808080;fill-opacity:1;stroke:#000000;stroke-width:4.36510897;stroke-linecap:butt;stroke-linejoin:miter;stroke-miterlimit:4;stroke-opacity:1;stroke-dasharray:none" />
      <path
         sodipodi:nodetypes="cssssc"
         inkscape:connector-curvature="0"
         id="path3000-7"
         d="m 471.03837,442.69783 c 0,0 9.9502,-7.89166 15.63701,-10.59279 7.92828,-3.76584 16.6807,-5.54112 25.22105,-7.56641 10.38238,-2.46203 21.02617,-3.65076 31.52639,-5.54861 10.43347,-1.8857 20.9573,-3.35605 31.27402,-5.8008 12.34925,-2.92629 36.57061,-10.59283 36.57061,-10.59283"
         style="fill:none;stroke:#000000;stroke-width:4.36510897;stroke-linecap:butt;stroke-linejoin:miter;stroke-miterlimit:4;stroke-opacity:1;stroke-dasharray:none" />
      <path
         sodipodi:nodetypes="csssssssssssc"
         inkscape:connector-curvature="0"
         id="path3004-0"
         d="m 766.629,376.11422 c 0,0 23.44364,-4.71082 35.30959,-6.05302 12.04791,-1.36282 24.52674,0.80556 36.31821,-2.01771 8.93243,-2.13857 17.64034,-5.91143 25.22116,-11.09731 1.96256,-1.34242 4.45105,-2.74142 5.0441,-5.04414 1.96438,-7.62679 -2.79767,-15.77853 -6.55738,-22.69894 -3.18654,-5.86534 -7.84254,-11.03918 -13.11501,-15.13257 -5.64249,-4.38082 -12.21558,-7.94277 -19.16792,-9.58411 -6.70935,-1.58383 -14.10346,-2.06286 -20.68131,0 -4.49505,1.40978 -7.51068,5.735 -11.60166,8.07083 -3.85492,2.20099 -8.59228,2.83603 -12.10611,5.54858 -3.78327,2.9206 -9.07967,11.09727 -9.07967,11.09727 -1.59706,1.95205 -8.57505,6.55749 -8.57505,6.55749"
         style="fill:none;stroke:#000000;stroke-width:4.36510897;stroke-linecap:butt;stroke-linejoin:miter;stroke-miterlimit:4;stroke-opacity:1;stroke-dasharray:none" />
      <path
         sodipodi:nodetypes="cssssssscc"
         inkscape:connector-curvature="0"
         id="path4230-7-8"
         d="m 603.31979,323.99034 c 0,0 2.48268,-2.36621 3.74475,-3.52698 2.29353,-2.10952 4.35852,-4.52367 6.95493,-6.24685 3.67412,-2.4385 7.74186,-4.37888 11.96878,-5.63561 3.45382,-1.02664 7.10876,-1.29482 10.70688,-1.48606 2.46942,-0.13153 4.27282,-0.39233 6.56383,0.53859 0.72217,0.29406 1.37403,0.882 1.72679,1.5772 0.21009,0.41406 0.24036,0.92928 0.15135,1.38502 -0.11099,0.56797 0.0217,1.22427 0.0217,1.22427 z"
         style="fill:#666666;fill-opacity:1;stroke:none" />
      <path
         sodipodi:nodetypes="cscsssscsssssssssccc"
         inkscape:connector-curvature="0"
         id="path3825-9-4-9"
         d="m 603.24412,324.23406 c 0,0 6.95071,-0.5858 10.38616,-1.38755 2.69616,-0.62926 7.94961,-2.62755 7.94961,-2.62755 0,0 2.12499,1.73606 3.39375,2.18193 1.52776,0.53691 3.2326,0.76289 4.83156,0.50689 1.50682,-0.24108 2.99974,-0.90386 4.17626,-1.87605 0.68991,-0.56966 1.10065,-1.41886 1.54256,-2.19692 0.47817,-0.84199 1.18682,-2.65151 1.18682,-2.65151 0,0 3.37592,-1.22455 5.04187,-1.89371 0.9332,-0.37535 2.09022,-0.44721 2.77606,-1.18278 0.26559,-0.28505 0.53237,-0.7457 0.38145,-1.10484 -0.16685,-0.3968 -0.73608,-0.54011 -1.1661,-0.55345 -2.34337,-0.0724 -4.32342,1.82042 -6.52827,2.61728 -0.9448,0.34091 -1.86462,0.87511 -2.86791,0.92513 -0.75049,0.0374 -1.45673,-0.39395 -2.20383,-0.47435 -1.25346,-0.13477 -2.56315,-0.33081 -3.78198,-0.007 -0.83665,0.22126 -1.49853,0.86595 -2.25418,1.28775 -0.51106,0.28505 -0.98011,0.67525 -1.54159,0.84015 -4.72576,3.50496 -13.41394,4.30976 -19.30126,6.20011 -0.65968,0.48556 -2.02091,1.39847 -2.02091,1.39847 z"
         style="fill:#000000;fill-opacity:1;stroke:#000000;stroke-width:0.36142167px;stroke-linecap:butt;stroke-linejoin:miter;stroke-opacity:1" />
      <path
         sodipodi:nodetypes="cscssssssssc"
         inkscape:connector-curvature="0"
         id="path3829-2-3"
         d="m 623.74898,319.79323 c 0,0 0.5972,-1.27291 1.08661,-1.75752 1.45107,-1.43684 5.2422,-3.16993 5.2422,-3.16993 0,0 1.1733,0.11495 1.70163,0.35315 0.28288,0.12757 0.55377,0.31244 0.74631,0.55622 0.6022,0.76069 0.95925,1.76376 0.85252,2.72798 -0.0631,0.5693 -0.27604,0.95446 -0.70755,1.33129 -0.85243,0.74444 -1.9248,1.22473 -2.98795,1.61295 -0.59185,0.21478 -1.22555,0.30054 -1.84967,0.38501 -0.46565,0.0631 -0.94429,0.17298 -1.40667,0.0901 -0.58433,-0.10414 -1.16369,-0.35135 -1.62755,-0.7218 -0.45737,-0.36523 -1.04966,-1.40729 -1.04966,-1.40729 z"
         style="fill:#ffffff;stroke:#000000;stroke-width:0.36142167px;stroke-linecap:butt;stroke-linejoin:miter;stroke-opacity:1" />
      <path
         sodipodi:nodetypes="cc"
         inkscape:connector-curvature="0"
         id="path3822-7-4"
         d="m 612.01589,326.82496 c 17.34463,6.83738 28.85505,0.0948 35.50368,-5.86962"
         style="fill:#666666;fill-opacity:1;stroke:#000000;stroke-width:0.36142167px;stroke-linecap:butt;stroke-linejoin:miter;stroke-opacity:1" />
      <path
         sodipodi:nodetypes="csssssscsc"
         inkscape:connector-curvature="0"
         id="path3827-7-4"
         d="m 624.93973,318.13564 c 0,0 0.52753,1.30462 1.03626,1.75464 0.35352,0.31244 0.83157,0.49171 1.29759,0.56531 0.61327,0.0969 1.25911,-0.004 1.85397,-0.18127 0.87427,-0.26198 1.919,-0.51402 2.42336,-1.27454 0.28721,-0.43351 0.21983,-1.0418 0.13154,-1.55416 -0.0883,-0.51061 -0.36188,-0.97912 -0.64138,-1.41576 -0.25946,-0.40818 -0.94126,-1.10344 -0.94126,-1.10344 0,0 -1.95256,0.73446 -2.83156,1.28322 -0.85427,0.53344 -2.32834,1.92593 -2.32834,1.92593 z"
         style="fill:#000000;stroke:#000000;stroke-width:0.36142167px;stroke-linecap:butt;stroke-linejoin:miter;stroke-opacity:1" />
      <path
         sodipodi:nodetypes="cc"
         inkscape:connector-curvature="0"
         id="path4022-9-6"
         d="m 609.70387,314.08353 c 6.00347,-5.08727 13.66294,-7.97936 21.53259,-9.99899"
         style="fill:none;stroke:#666666;stroke-width:0.54213262;stroke-linecap:round;stroke-linejoin:miter;stroke-miterlimit:4;stroke-opacity:1;stroke-dasharray:none" />
      <path
         sodipodi:nodetypes="cssscsssc"
         inkscape:connector-curvature="0"
         id="path4265-8-3-0"
         d="m 620.95401,317.95221 c 0,0 1.77511,-1.71101 2.69475,-3.24676 0.73176,-1.22214 1.6762,-2.20009 2.97415,-2.78683 1.75029,-0.79143 3.15314,-0.9568 4.96404,-0.31604 1.2337,0.43633 3.7233,2.37299 3.7233,2.37299 0,0 -2.31446,-0.12757 -3.47303,-0.13405 -1.53741,-0.007 -2.65061,-0.098 -4.09423,0.43132 -1.36725,0.50011 -2.59296,1.85366 -3.93055,2.42848 -1.17075,0.50296 -2.85832,1.24978 -2.85832,1.24978 z"
         style="fill:#808080;fill-opacity:1;stroke:none" />
      <path
         sodipodi:nodetypes="ccsscc"
         inkscape:connector-curvature="0"
         id="path4296-1-6"
         d="m 619.49804,314.59363 14.39076,-4.99157 c 0,0 -1.50898,-1.25006 -2.26672,-1.38473 -2.17295,-0.38628 -4.10622,-0.42505 -6.03741,0.36188 -2.9046,1.1835 -6.0867,6.01416 -6.0867,6.01416 z"
         style="fill:#808080;fill-opacity:1;stroke:none" />
    </g>
  </g>
  <g
     inkscape:groupmode="layer"
     id="layer10"
     inkscape:label="english text"
     style="display:none">
    <g
       transform="matrix(4.0405092,0,0,4.0405092,547.04705,226.96771)"
       style="font-size:20px;font-style:normal;font-weight:normal;line-height:125%;letter-spacing:0px;word-spacing:0px;fill:#000000;fill-opacity:1;stroke:none;display:inline;font-family:Sans"
       id="flowRoot4094">
      <path
         d="m -135.39062,7.1802195 0,-14.3164062 2.85156,0 3.38867,10.1367187 c 0.31249,0.9440137 0.54036,1.6503932 0.68359,2.1191407 0.16275,-0.5208308 0.41666,-1.285804 0.76172,-2.2949219 l 3.42774,-9.9609375 2.54882,0 0,14.3164062 -1.82617,0 0,-11.9824218 -4.16015,11.9824218 -1.70899,0 -4.14062,-12.1875 0,12.1875 z"
         id="path4145"
         inkscape:connector-curvature="0" />
    </g>
    <g
       transform="matrix(4.0405092,0,0,4.0405092,916.42557,147.37786)"
       style="font-size:20px;font-style:normal;font-weight:normal;line-height:125%;letter-spacing:0px;word-spacing:0px;fill:#000000;fill-opacity:1;stroke:none;display:inline;font-family:Sans"
       id="flowRoot4102">
      <path
         d="m -129.67187,119.30522 0,-14.31641 9.6582,0 0,1.68946 -7.76367,0 0,4.43359 6.71875,0 0,1.68945 -6.71875,0 0,6.50391 z"
         id="path4148"
         inkscape:connector-curvature="0" />
    </g>
  </g>
  <g
     inkscape:groupmode="layer"
     id="layer6"
     inkscape:label="highlights"
     transform="translate(67.654748,-557.52339)" />
  <g
     inkscape:groupmode="layer"
     id="layer5"
     inkscape:label="mouth"
     transform="translate(67.654748,-557.52339)" />
  <g
     inkscape:groupmode="layer"
     id="layer9"
     inkscape:label="arabic text">
    <g
       style="font-size:56.59942245px;font-style:normal;font-variant:normal;font-weight:normal;font-stretch:normal;line-height:1000%;letter-spacing:0px;word-spacing:0px;fill:#000000;fill-opacity:1;stroke:none;display:inline;font-family:Simplified Arabic;-inkscape-font-specification:Simplified Arabic"
       id="text3030">
      <path
         d="m 59.957086,218.95314 -2.155642,4.00729 -4.42183,-2.37674 2.01746,-4.00728 z m 7.351292,32.50045 -12.381123,0 c -1.031768,1e-5 -1.971406,-0.304 -2.818917,-0.912 -0.847522,-0.608 -1.27128,-1.32654 -1.271276,-2.15564 -4e-6,-1.34497 0.175026,-2.60703 0.525092,-3.78619 l 0.635638,0 c 0.36848,1.3634 1.344967,2.0451 2.929463,2.04509 l 10.695301,0 c -2e-5,-7.16703 -2.367539,-11.48752 -7.102565,-12.96149 l 0.414547,-5.36147 c 3.205811,1.56609 5.471996,4.06258 6.798563,7.48948 1.050165,2.74523 1.575256,6.35639 1.575277,10.83348 z"
         style=""
         id="path3056" />
      <path
         d="m 48.183961,251.45359 -24.237155,0 0,-4.80874 21.031328,0 c -2.303055,-3.48218 -6.015546,-6.74327 -11.137484,-9.7833 l -0.912002,0.85673 c -1.087041,-0.82907 -2.174073,-1.66738 -3.2611,-2.51491 -1.14231,-0.93962 -1.713463,-1.67659 -1.713459,-2.21092 -4e-6,-3.15053 0.783028,-5.62859 2.349097,-7.4342 1.400239,-1.62131 3.869091,-3.12288 7.406565,-4.50474 l 7.793476,-3.04001 0,4.78111 -5.776016,1.93455 c -5.527297,1.84245 -8.290938,3.14137 -8.290931,3.89673 -7e-6,0.36852 0.396115,0.87518 1.188367,1.52001 l 2.818917,2.10037 c 5.840483,4.44027 10.087277,9.23979 12.740397,14.39858 z"
         style=""
         id="path3058" />
      <path
         d="m 25.908991,251.45359 c -3e-5,2.98474 -1.750335,6.00632 -5.250923,9.06475 -3.224272,2.78206 -5.978701,4.1731 -8.263295,4.1731 -1.768746,0 -3.8230522,-0.38691 -6.1629249,-1.16073 -1.9714071,-0.71855 -3.9520164,-1.44631 -5.94183391,-2.18327 l 0.46981943,-1.10546 c 3.85066858,0.73696 6.31030898,1.10545 7.37892858,1.10546 3.5558728,-1e-5 7.1117578,-1.55686 10.6676648,-4.67056 3.408468,-3.00316 5.112713,-5.84971 5.112741,-8.53966 -2.8e-5,-2.65309 -1.381848,-5.50885 -4.145466,-8.5673 l 1.575277,-4.33892 c 3.03998,2.80051 4.559982,5.96949 4.560012,9.50694 z"
         style=""
         id="path3060" />
    </g>
    <g
       style="font-size:52.10245514px;font-style:normal;font-variant:normal;font-weight:normal;font-stretch:normal;line-height:1000%;letter-spacing:0px;word-spacing:0px;fill:#000000;fill-opacity:1;stroke:none;display:inline;font-family:Simplified Arabic;-inkscape-font-specification:Simplified Arabic"
       id="text3034">
      <path
         d="m 454.9331,565.17605 c -1e-5,0.84806 -1.00067,1.61976 -3.00199,2.3151 l -5.90223,2.03526 c -1e-5,-0.98367 1.06002,-1.84865 3.18008,-2.59495 -1.44164,-0.72926 -2.16246,-1.47552 -2.16246,-2.23878 0,-0.64445 0.56817,-1.57728 1.70453,-2.79847 1.2381,-1.28895 2.33205,-1.93344 3.28184,-1.93349 1.05154,5e-5 1.57731,0.51734 1.57732,1.55188 -10e-6,0.42405 -0.24594,1.06855 -0.73778,1.93349 -0.6445,-0.59357 -1.35684,-0.89038 -2.13701,-0.89042 -0.4749,4e-5 -0.93707,0.0976 -1.38652,0.29256 -0.44946,0.19509 -0.67418,0.41982 -0.67418,0.67418 0,0.32229 0.48337,0.75478 1.45012,1.29748 0.96674,0.54277 1.81476,0.81413 2.54407,0.8141 0.72928,3e-5 1.48402,-0.15261 2.26421,-0.45794 z m -1.32291,29.51116 c -10e-6,1.96742 -0.79715,4.35884 -2.39142,7.17426 l -0.45793,-0.2544 c 0.13567,-1.35683 0.20351,-2.3575 0.20352,-3.002 -10e-6,-4.56235 -0.80562,-12.86447 -2.41686,-24.9064 0.64449,-1.40768 1.44163,-3.0274 2.39142,-4.85916 1.78084,12.36418 2.67126,20.98007 2.67127,25.8477 z"
         style=""
         id="path3047" />
      <path
         d="m 442.82335,578.32887 -1.93349,3.6889 -4.12138,-2.13702 1.88261,-3.68889 z m 2.39143,22.84571 -14.50118,0 0,-4.42668 12.64401,0 c -1e-5,-2.00132 -0.23746,-3.52776 -0.71234,-4.57931 -0.33922,-0.72929 -1.13636,-1.78084 -2.39142,-3.15464 l 1.98437,-4.14683 c 1.22114,1.54342 1.98436,2.75609 2.28966,3.63801 0.45792,1.32293 0.68688,3.4769 0.6869,6.46193 z"
         style=""
         id="path3049" />
      <path
         d="m 430.84081,576.03921 -1.98437,3.66346 -4.12139,-2.1879 1.90805,-3.63801 z m -5.01181,-4.52843 -1.95893,3.71433 -4.07051,-2.18789 1.88261,-3.71434 z m -0.83954,6.81809 -1.93349,3.6889 -4.12139,-2.13702 1.88261,-3.68889 z m 7.50499,22.84571 -14.50117,0 0,-4.42668 12.644,0 c -10e-6,-2.00132 -0.23746,-3.52776 -0.71234,-4.57931 -0.33922,-0.72929 -1.13636,-1.78084 -2.39142,-3.15464 l 1.98437,-4.14683 c 1.22114,1.54342 1.98436,2.75609 2.28966,3.63801 0.45792,1.32293 0.68689,3.4769 0.6869,6.46193 z"
         style=""
         id="path3051" />
      <path
         d="m 419.79956,601.17458 -4.45211,0 c -5.2408,0 -7.86118,0.59361 -7.86116,1.78084 -2e-5,0.4749 0.78864,0.75474 2.36598,0.83954 0.848,0.0339 2.28963,0.14417 4.32491,0.33073 1.61121,0.18657 2.41683,0.75474 2.41686,1.70453 -3e-5,3.17159 -1.05157,5.48669 -3.15464,6.94529 -2.25576,1.56035 -6.00401,2.34053 -11.24477,2.34054 -3.6465,-10e-6 -6.54673,-0.61906 -8.7007,-1.85716 -2.28966,-1.32292 -3.43449,-3.20553 -3.43449,-5.64783 0,-1.95045 0.54273,-4.03658 1.6282,-6.2584 0.44097,-0.86498 1.46707,-2.5695 3.07832,-5.11357 l 1.01763,0.50881 c -0.64451,1.08548 -1.289,2.17942 -1.93349,3.28185 -0.94979,1.83173 -1.42468,3.35816 -1.42468,4.57931 0,2.08614 1.08546,3.67194 3.2564,4.75741 2.05221,1.03458 4.89308,1.55187 8.52262,1.55188 2.37444,-1e-5 4.51994,-0.19505 6.43649,-0.58514 2.25571,-0.45794 3.38358,-1.07699 3.3836,-1.85717 -2e-5,-0.47489 -0.55124,-0.76322 -1.65364,-0.86498 -0.88196,-0.0509 -2.2388,-0.13568 -4.0705,-0.2544 -1.98439,-0.11873 -2.97658,-0.67842 -2.97656,-1.67909 -2e-5,-3.15464 1.33138,-5.54606 3.99418,-7.17426 1.89955,-1.17026 3.90936,-1.7554 6.02944,-1.75541 l 4.45211,0 z"
         style=""
         id="path3053" />
    </g>
  </g>
</svg>
