<?xml version="1.0"?><svg width="640" height="480" xmlns="http://www.w3.org/2000/svg">
 <metadata id="metadata5986">image/svg+xml</metadata>
 <g>
  <title>Layer 1</title>
  <g transform="rotate(-179.89540100097656 298.8164978027343,117.46630096435547) " id="layer1">
   <path d="m347.360992,96.546898c-0.067993,-0.002701 -0.205994,0.0354 -0.274994,0.033501c-4.858002,-0.134796 -13.667999,1.278099 -22.39801,3.617599c-9.173981,2.459 -18.005981,6.487 -27.971985,9.581001c-4.501007,-2.064003 -9.078003,-4.032997 -13.658997,-5.627998c-7.979004,-2.778 -15.690002,-4.589302 -21.744995,-4.589302c-1.505005,0 -2.973999,0.092102 -4.404022,0.267998c-1.429993,0.1763 -2.83699,0.437302 -4.162994,0.770302c-2.651001,0.667 -5.070999,1.625999 -7.121994,2.814003c-3.658997,2.118996 -6.093002,5 -6.606003,8.240997c-2.087006,0.067001 -4.078003,0.175003 -5.746002,0.368004c-3.955002,0.459 -6.815994,1.231995 -8.875992,2.243996c-1.031006,0.507004 -1.868011,1.070999 -2.546005,1.675003c-2.712997,2.418999 -2.615005,5.461998 -2.615005,7.335999c0,1.261002 0.644012,2.668999 1.823013,4.221001c1.179993,1.553001 2.936996,3.206993 5.332993,4.724007c1.197998,0.757996 2.539001,1.482986 4.059998,2.14299c3.042007,1.320999 6.744003,2.386002 11.14801,2.947998c2.200989,0.281006 4.597,0.436005 7.155991,0.436005c2.408997,0 5.084,-0.248993 7.878998,-0.602997c9.162994,-1.162003 19.932007,-3.949997 29.761017,-6.934006c1.652985,-0.501999 2.85498,-0.936996 4.437988,-1.440994c1.348999,0.597 2.723999,1.147003 4.059998,1.742004c6.380005,2.840988 12.585999,5.607986 18.373016,7.972992l0.687988,-1.574997c-5.746002,-2.347 -11.955994,-5.130005 -18.338013,-7.972c-0.759003,-0.337997 -1.541992,-0.666 -2.304993,-1.005005c9.496002,-3.093994 17.687988,-6.000999 20.196014,-6.866997c0.259003,-0.090004 1.326996,-0.455002 1.651001,-0.57c5.233002,2.298996 10.725983,4.532997 16.204987,6.398003c4.511993,1.536003 8.852997,2.831001 12.696014,3.786003c3.842987,0.954987 7.184998,1.569 9.667999,1.674988c4.947998,0.209 11.133972,-1.248001 16.10199,-3.886002c1.242004,-0.659996 2.389984,-1.399994 3.44101,-2.210991c1.049988,-0.811005 1.975983,-1.685005 2.751984,-2.647003c1.552002,-1.921997 2.476013,-4.187996 2.304993,-6.631996c-0.326996,-4.677002 -2.894989,-7.866005 -6.570984,-9.748001c-2.399017,-1.228004 -5.34201,-1.829002 -8.429993,-2.210999c-0.701019,-2.984001 -2.296021,-5.086105 -4.644012,-6.3312c-1.657013,-0.878403 -3.681,-1.358604 -5.917999,-1.674904c-1.755005,-0.3311 -3.480988,-0.450302 -5.058014,-0.435501c-0.108002,0.000999 -0.237976,-0.035698 -0.343994,-0.033501l0,0zm0,1.708405c0.013,0.000496 0.022003,-0.000504 0.033997,0c1.936005,0.082596 3.615997,0.271698 5.196014,0.502495c1.431,0.282806 2.863983,0.661301 4.127991,1.273201c2.153015,1.041 3.843994,2.549004 4.679993,4.822998c-1.042999,-0.081993 -2.020996,-0.278999 -3.096985,-0.300995c-16.251007,1.616997 -31.684998,6.536995 -47.445007,12.026001c-1.446991,-0.700005 -3.143005,-1.382004 -4.438995,-2.077003c-1.07901,-0.577995 -2.31601,-1.103996 -3.440002,-1.674995c0.269012,-0.110001 0.865997,-0.302002 1.100006,-0.402c4.005005,-1.700005 12.485992,-5.209 21.160004,-8.307007c8.656006,-3.091995 17.588989,-5.758598 22.122986,-5.862694zm-86.048981,3.014694c1.42099,0 2.946991,0.091003 4.575989,0.302002c1.628998,0.209999 3.337006,0.542999 5.127014,0.938004c7.278992,1.604996 15.668976,4.624001 23.635986,8.172997c-4.790009,2.169998 -9.05899,4.207001 -15.138,6.633003c-2.153015,0.859001 -4.04599,1.442001 -6.123993,2.210999c-2.296997,-0.890999 -4.589996,-1.794998 -6.847015,-2.580002c-6.356995,-2.209 -12.514999,-3.932999 -18.234985,-4.790001c-2.610001,-0.390999 -5.097,-0.541 -7.501007,-0.535995c0.371002,-1.751999 1.403,-3.473999 3.199997,-4.991005c0.737,-0.622993 1.602005,-1.195 2.546005,-1.741997c1.888,-1.093002 4.136002,-2.015999 6.639999,-2.646004c2.503998,-0.630997 5.259995,-0.972 8.12001,-0.972zm94.787994,7.403c0.324005,-0.014 0.640991,-0.005997 0.928986,0c1.658997,0.034004 3.251007,0.126007 4.851013,0.201004c-0.028992,0.403 0.002991,0.805 -0.069,1.206001c-0.330994,1.847 -1.106018,3.651001 -2.201996,5.292999c-0.546997,0.820999 -1.199005,1.588997 -1.891998,2.310997c-1.386017,1.445 -3.005005,2.661003 -4.748016,3.518005c-0.872009,0.427994 -1.777985,0.764999 -2.682983,1.004997c-0.906006,0.238998 -1.81601,0.377998 -2.719025,0.402c-1.876984,0.047997 -3.496979,-0.172005 -4.850983,-0.536003c-1.302002,-0.350998 -2.36499,-0.846001 -3.200012,-1.406998c1.587006,-0.285004 2.822021,-1.623001 2.822021,-3.25c0,-1.833 -1.558014,-3.316002 -3.44101,-3.316002c-0.173004,0 -0.31601,0.009003 -0.481995,0.033005c-0.309998,-0.026001 -0.649017,-0.011002 -0.997009,0.033997c-0.980988,0.282997 -1.90799,1.266998 -2.029999,2.814003c-0.069,0.863998 0.174011,1.750999 0.687988,2.612999c0.514008,0.861 1.309021,1.696999 2.33902,2.411995c1.031006,0.714005 2.317993,1.329002 3.854004,1.741005c1.53598,0.413002 3.296997,0.622002 5.332977,0.57c1.053009,-0.027 2.10202,-0.167 3.131012,-0.436005c1.028992,-0.267998 2.054993,-0.660995 3.027985,-1.138c0.971008,-0.477997 1.903015,-1.056999 2.786011,-1.709c0.882996,-0.651993 1.716003,-1.382996 2.477997,-2.176994c0.761017,-0.793999 1.455994,-1.637001 2.063995,-2.546005c0.608002,-0.909996 1.132019,-1.885994 1.548004,-2.880997c0.416992,-0.995003 0.709015,-2.030998 0.89502,-3.082001c0.082001,-0.463997 0.036987,-0.935997 0.069,-1.406998c2.527985,0.174995 4.924988,0.463997 6.880981,1.071999c1.792999,0.557999 3.233002,1.362999 4.265991,2.478996c1.03302,1.116005 1.680023,2.572006 1.824005,4.623001c0.068024,0.983002 -0.084991,1.907005 -0.412994,2.814003c-0.32901,0.905998 -0.838989,1.776001 -1.514008,2.612999c-0.675995,0.835999 -1.517975,1.637001 -2.47699,2.377998c-0.959991,0.741005 -2.035004,1.425003 -3.200012,2.042999c-2.329987,1.238007 -4.994995,2.219009 -7.638,2.848007c-2.643982,0.627991 -5.271973,0.899002 -7.534973,0.804001c-2.254028,-0.096008 -5.472015,-0.671005 -9.255005,-1.608002c-3.783997,-0.938004 -8.121002,-2.230003 -12.593018,-3.752007c-4.842987,-1.647995 -9.781982,-3.552994 -14.484985,-5.560997c4.091003,-1.461998 9.424988,-3.427002 16.617981,-5.727997c8.351013,-2.671005 17.154022,-5.081001 22.02002,-5.293007zm-115.431,4.657005c7.35199,-0.040001 16.031006,2.062996 25.253998,5.258995c1.636993,0.567001 3.324982,1.248001 4.988007,1.875999c-1.559021,0.552002 -3.331024,1.260002 -4.748016,1.708c-1.626984,0.515007 -3.048004,0.907005 -4.403992,1.239006c-1.641998,0.282997 -3.830994,0.804001 -4.782013,0.804001c-3.912994,0 -8.109985,-1.357002 -11.250992,-3.483002c-2.957993,-2.002998 -4.83699,-4.658005 -5.056992,-7.403zm-1.789001,0.032997c0.108994,1.641998 0.634003,3.207001 1.582001,4.623001c1.054001,1.571999 2.541992,2.986 4.266998,4.153999c1.723999,1.167 3.724991,2.125 5.813995,2.779999c2.089005,0.654999 4.272003,1.005005 6.43399,1.005005c2.243011,0 5.706024,-0.642006 9.874023,-1.642006c2.478973,-0.593994 5.408997,-1.479996 8.222992,-2.277c0.151001,0.059006 0.296997,0.107002 0.447998,0.167c3.256989,1.305 6.5,2.805 9.770996,4.221001c-2.244995,0.967003 -3.108002,1.401001 -5.608002,2.378006c-9.761993,3.817001 -21.049988,7.268997 -30.931,7.268997c-2.485992,0 -4.792999,-0.164001 -6.914993,-0.434998c-2.123001,-0.270996 -4.076004,-0.660004 -5.848999,-1.139008c-3.549011,-0.959 -6.399002,-2.268997 -8.636002,-3.684998c-1.119003,-0.707993 -2.07901,-1.416 -2.891006,-2.143997c-0.811005,-0.726997 -1.477997,-1.462997 -1.994995,-2.143997c-1.033997,-1.361 -1.479996,-2.572006 -1.479004,-3.216003c0,-0.967003 -0.035995,-2.017998 0.206009,-3.047997c0.241989,-1.030006 0.76799,-2.043007 1.857986,-3.015007c0.544006,-0.484993 1.255005,-0.963997 2.167007,-1.406998c1.824997,-0.883995 4.453995,-1.627998 8.257996,-2.076996c1.546997,-0.181999 3.447006,-0.298004 5.402008,-0.368004zm61.860992,0.301003c1.597015,0.790001 3.311005,1.538002 4.817017,2.345001c0.837982,0.449997 1.954987,0.889 2.855988,1.339996c-6.990997,2.763 -13.480988,5.374001 -20.919006,8.107002c-3.253998,-1.418999 -6.477997,-2.860001 -9.737,-4.187004c1.016998,-0.298996 1.902008,-0.493996 2.925018,-0.804001c7.992981,-2.428993 15.223999,-4.950996 20.057983,-6.799995l0,-0.000999z" id="path4139" stroke-miterlimit="4" stroke-width="1.6" fill="#7f3f00"/>
  </g>
  <rect fill="#7f3f00" stroke-width="5" x="377" y="116" width="112.000005" height="2" id="svg_1"/>
  <rect fill="#ffaa56" stroke-width="5" x="426" y="114" width="35" height="0" id="svg_2"/>
  <rect fill="#7f3f00" stroke-width="5" x="96.000002" y="119" width="124.999998" height="2" id="svg_8"/>
 </g>
</svg>