<?xml version="1.0"?><svg width="1003.8369" height="913.45508" xmlns="http://www.w3.org/2000/svg">
 <title>Swirl design Navy</title>
 <g>
  <title>Layer 1</title>
  <g id="layer1" transform="rotate(-89.9775 515.469 438.692)">
   <path d="m499.402679,430.885864c-41.007263,-51.765686 -41.700562,-78.273102 -32.056,-97.622131c13.636383,29.04184 34.918671,61.564789 66.307983,97.225616l0.232544,0.029572c-30.441559,-38.427704 -50.593872,-72.984894 -63.069611,-103.348938c6.40329,-9.990173 14.983459,-18.371552 20.631653,-28.243103c72.975433,-82.620392 34.431854,-131.126801 13.229675,-125.327255c-34.095001,-6.410324 -86.573212,52.065933 -38.487152,157.146133c-12.203339,19.590149 -14.644409,48.831268 33.09494,100.139954l-0.509033,-1.108185l0.625,1.108337zm-28.759186,-104.591278c-39.291412,-97.670319 1.195587,-151.427505 32.857147,-150.938339c-0.106079,0.047745 -0.215149,0.097275 -0.320129,0.147675c0.141052,-0.049484 0.287048,-0.073196 0.429077,-0.11824c2.841614,0.055374 5.603577,0.52475 8.236816,1.462067c-1.824707,-0.888306 -3.738525,-1.553329 -5.720947,-1.990555c20.430023,-1.9879 50.453278,43.88472 -14.160217,125.177872l-21.321747,26.259521zm41.202911,-149.446838c0.204987,0.10051 0.407928,0.192093 0.61087,0.297043l0.232483,0.00032c-0.277466,-0.109482 -0.562439,-0.196747 -0.843353,-0.297363zm-8.665894,-1.343826c-0.14502,0.051224 -0.292542,0.090897 -0.436096,0.147461l0.109009,0.000153c0.106995,-0.055756 0.219055,-0.095474 0.327087,-0.147614z" id="path2389" stroke-width="1px" fill-rule="evenodd" fill="#1b1b63" stroke="#303072"/>
   <path d="m535.52655,433.182556c45.654175,53.982788 46.426819,81.623413 35.690247,101.799011c-15.181946,-30.285217 -38.875732,-64.200134 -73.821747,-101.388977l-0.258972,-0.03125c33.891388,40.073914 56.326935,76.111023 70.217072,107.774048c-7.128174,10.417297 -16.680054,19.15625 -22.967896,29.449524c-81.239014,86.145447 -38.328217,136.730347 -14.724365,130.684998c37.957275,6.687195 96.378113,-54.283936 42.841797,-163.862671c13.584961,-20.426392 15.605713,-48.605835 -36.84668,-104.4245l-0.129456,-0.000183zm32.716064,110.222351c43.7453,101.849731 -1.326416,157.901733 -36.574036,157.388611c0.117859,-0.049377 0.239624,-0.101257 0.356201,-0.153748c-0.156738,0.051392 -0.319153,0.07666 -0.477539,0.122742c-3.163696,-0.0578 -6.238342,-0.546875 -9.170044,-1.525452c2.03186,0.92688 4.162354,1.621094 6.369263,2.077332c-22.744049,2.070557 -56.169586,-45.766907 15.760193,-130.529358c6.016541,-9.380859 15.841614,-17.607971 23.735962,-27.380127zm-45.865417,155.832153c-0.228271,-0.104065 -0.454041,-0.199585 -0.679688,-0.30957l-0.259094,-0.000366c0.309204,0.11499 0.62616,0.205566 0.938782,0.309937zm9.647583,1.40271c0.161865,-0.053284 0.325745,-0.094727 0.485718,-0.153687l-0.12146,-0.000183c-0.119141,0.0578 -0.243713,0.099365 -0.364258,0.15387z" id="path2401" stroke-width="1px" fill-rule="evenodd" fill="#1b1b63" stroke="#303072"/>
   <path d="m533.634277,442.031555c46.998352,-91.899323 47.826111,-139.040649 36.813293,-173.492706c-15.643982,51.596313 -40.042542,109.351929 -76.012482,172.648346l-0.266296,0.052307c34.889252,-68.221283 57.996979,-129.601288 72.314545,-183.552765c-7.315247,-17.794891 -17.124207,-32.73645 -23.575623,-50.316376c-83.410492,-147.239532 -39.236298,-233.354389 -14.978638,-222.953407c39.028564,-11.261002 99.012207,92.953987 43.843506,279.648232c13.940796,34.89093 15.984009,82.961456 -38.005249,177.966553l-0.133057,-0.000183zm33.765869,-187.871216c45.093994,-173.548874 -1.172302,-269.323013 -37.407959,-268.582043c0.121094,0.084698 0.246216,0.173519 0.365967,0.263737c-0.161133,-0.088436 -0.327881,-0.131966 -0.490845,-0.211308c-3.252319,0.086498 -6.413574,0.909138 -9.428711,2.566925c2.089966,-1.573029 4.280945,-2.749115 6.550049,-3.518772c-23.378448,-3.618248 -57.798309,77.846237 16.043823,222.691666c6.173828,16.022644 16.264099,30.09198 24.367676,46.789795zm-46.961548,-265.962688c-0.234741,0.176746 -0.466919,0.338566 -0.699097,0.525494l-0.266235,-0.000374c0.317871,-0.194817 0.643799,-0.348495 0.965332,-0.52512zm9.919556,-2.355618c0.166382,0.09137 0.334717,0.16272 0.499146,0.263824l-0.124817,-0.000175c-0.122375,-0.098885 -0.250427,-0.170609 -0.374329,-0.263649z" id="path2423" stroke-width="1px" fill-rule="evenodd" fill="#1b1b63" stroke="#303072"/>
   <path d="m497.303375,435.35199c-46.998444,91.899292 -47.826202,139.040588 -36.813354,173.492676c15.643951,-51.596497 40.042542,-109.35199 76.012543,-172.648407l0.266235,-0.052216c-34.889191,68.221313 -57.997009,129.601257 -72.314514,183.552612c7.315247,17.7948 17.124207,32.736389 23.575592,50.316467c83.410431,147.239563 39.236359,233.354248 14.978638,222.953308c-39.028595,11.261047 -99.012177,-92.953857 -43.843445,-279.648071c-13.940857,-34.89093 -15.9841,-82.961609 38.005127,-177.966553l0.133179,0.000183zm-33.765991,187.871216c-45.093994,173.548645 1.172394,269.322876 37.408081,268.582031c-0.121155,-0.084656 -0.246216,-0.173706 -0.366028,-0.263733c0.161133,0.088562 0.327942,0.131958 0.490845,0.211243c3.25238,-0.086487 6.413635,-0.909058 9.42865,-2.566833c-2.089844,1.572998 -4.280884,2.749084 -6.550049,3.518555c23.378571,3.618408 57.79837,-77.846191 -16.043823,-222.691528c-6.173737,-16.022705 -16.264038,-30.092163 -24.367676,-46.789734zm46.961548,265.962708c0.234741,-0.176758 0.467041,-0.338623 0.699219,-0.525513l0.266235,0.000366c-0.317932,0.194702 -0.64386,0.348389 -0.965454,0.525146zm-9.919495,2.355591c-0.166382,-0.091431 -0.334778,-0.16272 -0.499146,-0.263977l0.124878,0.000183c0.122375,0.098938 0.250366,0.170532 0.374268,0.263794z" id="path2425" stroke-width="1px" fill-rule="evenodd" fill="#1b1b63" stroke="#303072"/>
  </g>
 </g>
</svg>