<svg xmlns="http://www.w3.org/2000/svg" width="1352" height="591" viewBox="0 0 357.462 156.12"><g fill="#fff"><path d="M351.24 88.903a7.182 7.181 0 0 1-14.362.117 7.182 7.181 0 0 1 14.358-.35"/><path d="M23.986 156.12v-1.05l.13-.467-.13-.13v-15.183a10.77 10.77 0 0 1 2.664-1.921 10.66 10.66 0 0 1-2.664-4.649v-5.585a10.56 10.56 0 0 1 .905-2.272 5.98 5.98 0 0 1-.905-.456v-10.3c.92-.562 2-.893 3.158-.893 3.35 0 6.064 2.708 6.064 6.048l-.003.058 1.11-.058c2.41 0 4.628.805 6.42 2.147.836-.433 1.784-.682 2.79-.682 2.528 0 4.692 1.543 5.602 3.736 1.07-.358 2.2-.56 3.4-.56a10.7 10.7 0 0 1 3.027.441c1.078-.978 2.505-1.58 4.077-1.58 1.07 0 2.072.278 2.945.763a10.67 10.67 0 0 1 7.757-3.335 10.69 10.69 0 0 1 8.228 3.85 9.03 9.03 0 0 1 5.84 2.333c1.104-.384 2.286-.603 3.522-.603 2.5 0 4.79.86 6.613 2.293.577-.78 1.502-1.29 2.55-1.29a3.17 3.17 0 0 1 3.067 2.374 9.05 9.05 0 0 1 2.429-.339c2.622 0 4.976 1.116 6.63 2.89 1.655-1.775 4.01-2.89 6.63-2.89 4.236 0 7.782 2.902 8.777 6.817a6.04 6.04 0 0 1 3.361-1.016 6.06 6.06 0 0 1 5.825 4.378c.08 0 .16-.01.24-.01 3.77 0 7.075 1.946 8.983 4.882 2.107.412 3.817 1.914 4.53 3.892.812.164 1.583.444 2.302.81 1.076-1.685 2.96-2.806 5.113-2.806 3.182 0 5.787 2.446 6.04 5.555.15-.007.298-.022.452-.022 2.286 0 4.368.85 5.963 2.243a6.06 6.06 0 0 1 2.918-.746c1.134 0 2.19.316 3.1.856 1.047-.546 2.235-.858 3.5-.858a7.41 7.41 0 0 1 .605.03 6.06 6.06 0 0 1 5.656-3.885c2.382 0 4.437 1.374 5.43 3.367a10.73 10.73 0 0 1 2.77-.374 10.66 10.66 0 0 1 5.255 1.382c1.658-2.133 4.244-3.51 7.16-3.51 3.148 0 5.92 1.603 7.545 4.033 1.956-2.533 5.02-4.173 8.476-4.173a10.73 10.73 0 0 1 1.895.176c-.044-.295-.075-.594-.075-.9 0-3.34 2.715-6.048 6.064-6.048 1.778 0 3.37.768 4.48 1.983a9.07 9.07 0 0 1 4.982-4.419c-.08-.478-.13-.966-.13-1.466 0-2.657 1.156-5.038 2.984-6.692-.448-1.07-.696-2.245-.696-3.477 0-4.993 4.058-9.04 9.064-9.04 1.585 0 3.074.41 4.37 1.122a9.05 9.05 0 0 1 8.948-7.663c.14 0 .276.014.414.02.934-2.14 3.07-3.638 5.56-3.638a6.04 6.04 0 0 1 3.535 1.141c1.654-1.043 3.61-1.656 5.7-1.656 4.237 0 7.887 2.46 9.622 6.023a10.66 10.66 0 0 1 5.539-1.553 10.62 10.62 0 0 1 .891.045c0-.015-.003-.03-.003-.045 0-5.895 4.79-10.676 10.703-10.676.822 0 1.62.102 2.4.277-.192-.8-.305-1.632-.305-2.492 0-5.897 4.79-10.676 10.703-10.676.99 0 1.942.145 2.853.395.99-2 3.048-3.38 5.435-3.38.713 0 1.394.128 2.03.354a10.67 10.67 0 0 1 7.896-3.488c2.26 0 4.355.7 6.083 1.893v17.56l-.16.113c.054.023.106.052.16.077v41.016l-.144.13.144.04v11.423zm245.31-28.904l-.106.16c.035.035.064.073.097.107l.102-.167c-.033-.032-.06-.066-.092-.1M314.1 111.06c-.003.008-.002.017 0 .025v-.023"/></g><path d="M115.528 152.227c-1.2-4.126-5.59-6.503-9.783-5.312-1.61.457-2.955 1.377-3.937 2.567-1.966-.773-4.2-.936-6.39-.313a9.87 9.87 0 0 0-1.681.649c-2.42-5.096-8.31-7.845-13.973-6.235-3.82 1.085-6.653 3.905-7.874 7.336a14.09 14.09 0 0 0-2.8.27c-.004-.017-.007-.035-.012-.05-.632-2.156-2.922-3.4-5.115-2.777a4.11 4.11 0 0 0-2.177 1.496 13.98 13.98 0 0 0-2.02-1.21 9.57 9.57 0 0 0-.387-2.847c-.67-2.285-2.123-4.14-3.987-5.366.018-.768-.08-1.553-.308-2.33-1.21-4.124-5.59-6.502-9.783-5.312-.14.04-.27.09-.407.14a4.17 4.17 0 0 0-4.197-1.17c-.503.143-.956.376-1.348.67a7.78 7.78 0 0 0-3.651-4.141c-.09-.503-.202-1.007-.348-1.507-1.507-5.135-5.8-8.733-10.794-9.672.425-2.086.364-4.3-.277-6.486-.91-3.094-2.83-5.628-5.306-7.362 1.623-1.914 2.283-4.562 1.527-7.138-1.126-3.834-4.99-6.155-8.894-5.508.064-.887-.018-1.798-.283-2.702-1.022-3.48-4.3-5.707-7.818-5.606-.044-.197-.093-.394-.15-.592-.642-2.188-2-3.98-3.752-5.205v79.68H115.62c.308-1.266.3-2.624-.093-3.962" fill="#9ed9ff"/><ellipse cx="270.016" cy="128.008" rx="4.677" ry="4.394" fill="#fff"/><path d="M248.973 152.4c1.148-4.125 5.306-6.503 9.286-5.312 1.53.458 2.805 1.377 3.737 2.567 1.866-.774 3.986-.936 6.066-.313.56.168 1.093.387 1.596.65 2.295-5.096 7.887-7.845 13.263-6.235 3.626 1.085 6.314 3.905 7.473 7.336.88-.004 1.768.085 2.658.27.004-.017.007-.035.012-.05.6-2.156 2.773-3.4 4.855-2.777.864.258 1.57.8 2.066 1.496a13.15 13.15 0 0 1 1.918-1.21 10.05 10.05 0 0 1 .367-2.847c.637-2.285 2.015-4.14 3.784-5.366a8.01 8.01 0 0 1 .293-2.33c1.15-4.124 5.306-6.502 9.286-5.312.133.04.257.09.386.14.975-1.106 2.5-1.614 3.983-1.17.478.143.907.376 1.28.67.652-1.828 1.907-3.27 3.465-4.14.084-.503.192-1.006.33-1.507 1.43-5.135 5.504-8.733 10.245-9.672a14.15 14.15 0 0 1 .263-6.486c.862-3.094 2.687-5.628 5.036-7.362-1.54-1.914-2.167-4.562-1.45-7.138 1.068-3.834 4.735-6.155 8.442-5.508-.06-.887.017-1.798.27-2.702.97-3.48 4.082-5.707 7.42-5.606.042-.197.088-.394.143-.592.61-2.188 1.9-3.98 3.56-5.205v79.68h-110.12a8.01 8.01 0 0 1 .088-3.962" fill="#9ed9ff"/></svg>